<?xml version="1.0" encoding="utf-8"?>
<!-- Generator: Adobe Illustrator 26.0.2, SVG Export Plug-In . SVG Version: 6.00 Build 0)  -->
<svg version="1.1" id="Icons" xmlns="http://www.w3.org/2000/svg" xmlns:xlink="http://www.w3.org/1999/xlink" x="0px" y="0px"
	 viewBox="0 0 57.5 60.7" style="enable-background:new 0 0 57.5 60.7;" xml:space="preserve">
<path id="Click" d="M28.8,30.3C28.8,30.3,28.7,30.3,28.8,30.3c-0.3,0-0.4-0.2-0.5-0.3l-2.8-9.5c0-0.2,0-0.3,0.1-0.5
	c0.1-0.1,0.3-0.2,0.5-0.1l9.5,2.8c0.2,0.1,0.3,0.2,0.3,0.4c0,0.2-0.1,0.4-0.2,0.5l-2.4,1.6l2.4,2.4c0.2,0.2,0.2,0.5,0,0.7l-1.9,1.9
	c-0.2,0.2-0.5,0.2-0.7,0l-2.4-2.4l-1.6,2.4C29.1,30.2,28.9,30.3,28.8,30.3L28.8,30.3z M30.7,26.5c0.1,0,0.2,0,0.3,0.1l2.5,2.5
	l1.2-1.2l-2.5-2.5c-0.1-0.1-0.2-0.2-0.1-0.4c0-0.1,0.1-0.3,0.2-0.3l2-1.3l-7.7-2.3l2.3,7.7l1.3-2C30.4,26.6,30.5,26.6,30.7,26.5
	C30.6,26.5,30.7,26.5,30.7,26.5L30.7,26.5z M24.4,18.8c0.2-0.2,0.2-0.5,0-0.7l-0.9-0.9c-0.2-0.2-0.5-0.2-0.7,0
	c-0.2,0.2-0.2,0.5,0,0.7l0.9,0.9c0.1,0.1,0.2,0.1,0.3,0.1C24.2,19,24.3,18.9,24.4,18.8z M24,20.4c0-0.3-0.2-0.5-0.5-0.5h-1.4
	c-0.3,0-0.5,0.2-0.5,0.5s0.2,0.5,0.5,0.5h1.4C23.8,20.9,24,20.7,24,20.4z M23.4,23.6l0.9-0.9c0.2-0.2,0.2-0.5,0-0.7
	c-0.2-0.2-0.5-0.2-0.7,0l-0.9,0.9c-0.2,0.2-0.2,0.5,0,0.7c0.1,0.1,0.2,0.1,0.3,0.1C23.2,23.7,23.3,23.7,23.4,23.6z M28.2,18.8
	l0.9-0.9c0.2-0.2,0.2-0.5,0-0.7c-0.2-0.2-0.5-0.2-0.7,0l-0.9,0.9c-0.2,0.2-0.2,0.5,0,0.7c0.1,0.1,0.2,0.1,0.3,0.1
	C27.9,19,28.1,18.9,28.2,18.8L28.2,18.8z M26.4,18v-1.4c0-0.3-0.2-0.5-0.5-0.5c-0.3,0-0.5,0.2-0.5,0.5V18c0,0.3,0.2,0.5,0.5,0.5
	C26.2,18.5,26.4,18.3,26.4,18z"/>
</svg>
